<svg width="40" height="40" viewBox="0 0 40 40" fill="none" xmlns="http://www.w3.org/2000/svg">
<path d="M32.5 5H7.5C6.83696 5 6.20107 5.26339 5.73223 5.73223C5.26339 6.20107 5 6.83696 5 7.5V32.5C5 33.163 5.26339 33.7989 5.73223 34.2678C6.20107 34.7366 6.83696 35 7.5 35H32.5C33.163 35 33.7989 34.7366 34.2678 34.2678C34.7366 33.7989 35 33.163 35 32.5V7.5C35 6.83696 34.7366 6.20107 34.2678 5.73223C33.7989 5.26339 33.163 5 32.5 5ZM28.75 7.5H32.5V13.75H28.75V7.5ZM28.75 16.25H32.5V23.75H28.75V16.25ZM22.8125 27.4609C22.6535 27.5018 22.488 27.5109 22.3254 27.4878C22.1629 27.4647 22.0064 27.4098 21.8651 27.3262C21.7238 27.2426 21.6003 27.132 21.5017 27.0007C21.4032 26.8694 21.3314 26.72 21.2906 26.5609C20.8797 24.9578 19.25 23.7484 17.5016 23.7484C15.7531 23.7484 14.125 24.9578 13.7125 26.5609C13.6715 26.72 13.5995 26.8693 13.5007 27.0006C13.402 27.1318 13.2783 27.2422 13.1369 27.3257C12.9954 27.4091 12.8389 27.4638 12.6763 27.4868C12.5136 27.5097 12.3481 27.5004 12.1891 27.4594C12.03 27.4183 11.8807 27.3464 11.7494 27.2476C11.6182 27.1488 11.5078 27.0252 11.4243 26.8837C11.3409 26.7423 11.2862 26.5858 11.2632 26.4231C11.2403 26.2605 11.2496 26.095 11.2906 25.9359C11.6963 24.4262 12.6551 23.1243 13.9766 22.2891C13.2743 21.591 12.7952 20.7001 12.5998 19.7294C12.4045 18.7587 12.5018 17.7518 12.8793 16.8365C13.2569 15.9211 13.8977 15.1385 14.7206 14.5877C15.5435 14.037 16.5114 13.743 17.5016 13.743C18.4917 13.743 19.4596 14.037 20.2825 14.5877C21.1054 15.1385 21.7462 15.9211 22.1238 16.8365C22.5014 17.7518 22.5986 18.7587 22.4033 19.7294C22.208 20.7001 21.7288 21.591 21.0266 22.2891C22.3486 23.124 23.3072 24.4269 23.7109 25.9375C23.7521 26.0965 23.7614 26.2621 23.7385 26.4247C23.7156 26.5874 23.6609 26.7439 23.5775 26.8854C23.494 27.0269 23.3835 27.1506 23.2523 27.2493C23.121 27.3481 22.9716 27.42 22.8125 27.4609ZM32.5 32.5H28.75V26.25H32.5V32.5ZM20 18.75C20 19.2445 19.8534 19.7278 19.5787 20.1389C19.304 20.55 18.9135 20.8705 18.4567 21.0597C17.9999 21.2489 17.4972 21.2984 17.0123 21.202C16.5273 21.1055 16.0819 20.8674 15.7322 20.5178C15.3826 20.1681 15.1445 19.7227 15.048 19.2377C14.9516 18.7528 15.0011 18.2501 15.1903 17.7933C15.3795 17.3365 15.7 16.946 16.1111 16.6713C16.5222 16.3966 17.0055 16.25 17.5 16.25C18.163 16.25 18.7989 16.5134 19.2678 16.9822C19.7366 17.4511 20 18.087 20 18.75Z" fill="#238F4F"/>
</svg>
