<svg width="30" height="33" viewBox="0 0 30 33" fill="none" xmlns="http://www.w3.org/2000/svg">
<path d="M27.5 3H23.75V1.75C23.75 1.41848 23.6183 1.10054 23.3839 0.866116C23.1495 0.631696 22.8315 0.5 22.5 0.5C22.1685 0.5 21.8505 0.631696 21.6161 0.866116C21.3817 1.10054 21.25 1.41848 21.25 1.75V3H8.75V1.75C8.75 1.41848 8.6183 1.10054 8.38388 0.866116C8.14946 0.631696 7.83152 0.5 7.5 0.5C7.16848 0.5 6.85054 0.631696 6.61612 0.866116C6.3817 1.10054 6.25 1.41848 6.25 1.75V3H2.5C1.83696 3 1.20107 3.26339 0.732233 3.73223C0.263392 4.20107 0 4.83696 0 5.5V30.5C0 31.163 0.263392 31.7989 0.732233 32.2678C1.20107 32.7366 1.83696 33 2.5 33H27.5C28.163 33 28.7989 32.7366 29.2678 32.2678C29.7366 31.7989 30 31.163 30 30.5V5.5C30 4.83696 29.7366 4.20107 29.2678 3.73223C28.7989 3.26339 28.163 3 27.5 3ZM8.125 26.75C7.75416 26.75 7.39165 26.64 7.08331 26.434C6.77496 26.228 6.53464 25.9351 6.39273 25.5925C6.25081 25.2499 6.21368 24.8729 6.28603 24.5092C6.35837 24.1455 6.53695 23.8114 6.79917 23.5492C7.0614 23.287 7.39549 23.1084 7.7592 23.036C8.12292 22.9637 8.49992 23.0008 8.84253 23.1427C9.18514 23.2846 9.47798 23.525 9.68401 23.8333C9.89003 24.1416 10 24.5042 10 24.875C10 25.3723 9.80246 25.8492 9.45083 26.2008C9.09919 26.5525 8.62228 26.75 8.125 26.75ZM15 26.75C14.6292 26.75 14.2666 26.64 13.9583 26.434C13.65 26.228 13.4096 25.9351 13.2677 25.5925C13.1258 25.2499 13.0887 24.8729 13.161 24.5092C13.2334 24.1455 13.412 23.8114 13.6742 23.5492C13.9364 23.287 14.2705 23.1084 14.6342 23.036C14.9979 22.9637 15.3749 23.0008 15.7175 23.1427C16.0601 23.2846 16.353 23.525 16.559 23.8333C16.765 24.1416 16.875 24.5042 16.875 24.875C16.875 25.3723 16.6775 25.8492 16.3258 26.2008C15.9742 26.5525 15.4973 26.75 15 26.75ZM15 20.5C14.6292 20.5 14.2666 20.39 13.9583 20.184C13.65 19.978 13.4096 19.6851 13.2677 19.3425C13.1258 18.9999 13.0887 18.6229 13.161 18.2592C13.2334 17.8955 13.412 17.5614 13.6742 17.2992C13.9364 17.037 14.2705 16.8584 14.6342 16.786C14.9979 16.7137 15.3749 16.7508 15.7175 16.8927C16.0601 17.0346 16.353 17.275 16.559 17.5833C16.765 17.8916 16.875 18.2542 16.875 18.625C16.875 19.1223 16.6775 19.5992 16.3258 19.9508C15.9742 20.3025 15.4973 20.5 15 20.5ZM21.875 26.75C21.5042 26.75 21.1416 26.64 20.8333 26.434C20.525 26.228 20.2846 25.9351 20.1427 25.5925C20.0008 25.2499 19.9637 24.8729 20.036 24.5092C20.1084 24.1455 20.287 23.8114 20.5492 23.5492C20.8114 23.287 21.1455 23.1084 21.5092 23.036C21.8729 22.9637 22.2499 23.0008 22.5925 23.1427C22.9351 23.2846 23.228 23.525 23.434 23.8333C23.64 24.1416 23.75 24.5042 23.75 24.875C23.75 25.3723 23.5525 25.8492 23.2008 26.2008C22.8492 26.5525 22.3723 26.75 21.875 26.75ZM21.875 20.5C21.5042 20.5 21.1416 20.39 20.8333 20.184C20.525 19.978 20.2846 19.6851 20.1427 19.3425C20.0008 18.9999 19.9637 18.6229 20.036 18.2592C20.1084 17.8955 20.287 17.5614 20.5492 17.2992C20.8114 17.037 21.1455 16.8584 21.5092 16.786C21.8729 16.7137 22.2499 16.7508 22.5925 16.8927C22.9351 17.0346 23.228 17.275 23.434 17.5833C23.64 17.8916 23.75 18.2542 23.75 18.625C23.75 19.1223 23.5525 19.5992 23.2008 19.9508C22.8492 20.3025 22.3723 20.5 21.875 20.5ZM27.5 10.5H2.5V5.5H6.25V6.75C6.25 7.08152 6.3817 7.39946 6.61612 7.63388C6.85054 7.8683 7.16848 8 7.5 8C7.83152 8 8.14946 7.8683 8.38388 7.63388C8.6183 7.39946 8.75 7.08152 8.75 6.75V5.5H21.25V6.75C21.25 7.08152 21.3817 7.39946 21.6161 7.63388C21.8505 7.8683 22.1685 8 22.5 8C22.8315 8 23.1495 7.8683 23.3839 7.63388C23.6183 7.39946 23.75 7.08152 23.75 6.75V5.5H27.5V10.5Z" fill="#1763A6"/>
</svg>
