<svg width="40" height="38" viewBox="0 0 40 38" fill="none" xmlns="http://www.w3.org/2000/svg">
<path d="M23.5897 8.24357C20.9526 8.24357 18.3747 9.02556 16.1821 10.4906C13.9894 11.9557 12.2805 14.0381 11.2713 16.4745C10.2621 18.9108 9.99808 21.5917 10.5125 24.1781C11.027 26.7645 12.2969 29.1403 14.1616 31.005C16.0263 32.8697 18.4021 34.1396 20.9885 34.654C23.5749 35.1685 26.2558 34.9045 28.6921 33.8953C31.1285 32.8861 33.2109 31.1772 34.6759 28.9845C36.141 26.7919 36.923 24.214 36.923 21.5769C36.9193 18.0418 35.5133 14.6526 33.0137 12.1529C30.514 9.65326 27.1248 8.24731 23.5897 8.24357ZM30.7692 22.6025H23.5897C23.3177 22.6025 23.0568 22.4945 22.8645 22.3021C22.6721 22.1098 22.564 21.8489 22.564 21.5769V14.3974C22.564 14.1254 22.6721 13.8645 22.8645 13.6722C23.0568 13.4798 23.3177 13.3718 23.5897 13.3718C23.8617 13.3718 24.1226 13.4798 24.3149 13.6722C24.5073 13.8645 24.6153 14.1254 24.6153 14.3974V20.5513H30.7692C31.0412 20.5513 31.3021 20.6593 31.4944 20.8517C31.6868 21.044 31.7948 21.3049 31.7948 21.5769C31.7948 21.8489 31.6868 22.1098 31.4944 22.3021C31.3021 22.4945 31.0412 22.6025 30.7692 22.6025Z" fill="#238F4F"/>
<path d="M14.5 6.01284C14.5008 6.76122 14.3149 7.49798 13.9591 8.15641C13.6034 8.81484 13.089 9.37415 12.4627 9.7837C11.8363 10.1933 11.1177 10.4401 10.3718 10.502C9.62601 10.5638 8.87653 10.4387 8.19126 10.1378L4.93751 13.9016C4.93001 13.9103 4.92126 13.9197 4.91314 13.9278C4.53802 14.303 4.02926 14.5137 3.49876 14.5137C2.96827 14.5137 2.4595 14.303 2.08439 13.9278C1.70927 13.5527 1.49854 13.044 1.49854 12.5135C1.49854 11.983 1.70927 11.4742 2.08439 11.0991C2.09314 11.091 2.10189 11.0822 2.11126 11.0747L5.87501 7.82159C5.5378 7.05022 5.42351 6.19979 5.5451 5.36676C5.6667 4.53373 6.0193 3.75145 6.56293 3.10865C7.10656 2.46585 7.81945 1.98826 8.62073 1.73006C9.42201 1.47185 10.2796 1.44337 11.0963 1.64784C11.1804 1.66894 11.2577 1.71159 11.3204 1.77159C11.3831 1.8316 11.4291 1.90689 11.4539 1.99007C11.4787 2.07324 11.4814 2.16143 11.4617 2.24597C11.4421 2.33051 11.4008 2.40848 11.3419 2.47222L9.00001 5.01284L9.35376 6.65972L11 7.01284L13.5406 4.66784C13.6044 4.60893 13.6823 4.56763 13.7669 4.54799C13.8514 4.52835 13.9396 4.53106 14.0228 4.55584C14.106 4.58062 14.1813 4.62663 14.2413 4.68933C14.3013 4.75204 14.3439 4.82928 14.365 4.91347C14.4547 5.27304 14.5001 5.64224 14.5 6.01284Z" fill="#238F4F"/>
</svg>
