<svg width="40" height="40" viewBox="0 0 40 40" fill="none" xmlns="http://www.w3.org/2000/svg">
<path d="M23.5897 9.74358C20.9526 9.74358 18.3747 10.5256 16.1821 11.9907C13.9894 13.4557 12.2805 15.5381 11.2713 17.9745C10.2621 20.4108 9.99808 23.0917 10.5125 25.6781C11.027 28.2645 12.2969 30.6403 14.1616 32.505C16.0263 34.3697 18.4021 35.6396 20.9885 36.1541C23.5749 36.6685 26.2558 36.4045 28.6921 35.3953C31.1285 34.3861 33.2109 32.6772 34.6759 30.4845C36.141 28.2919 36.923 25.714 36.923 23.0769C36.9193 19.5418 35.5133 16.1526 33.0137 13.6529C30.514 11.1533 27.1248 9.74732 23.5897 9.74358ZM30.7692 24.1026H23.5897C23.3177 24.1026 23.0568 23.9945 22.8645 23.8022C22.6721 23.6098 22.564 23.3489 22.564 23.0769V15.8974C22.564 15.6254 22.6721 15.3645 22.8645 15.1722C23.0568 14.9798 23.3177 14.8718 23.5897 14.8718C23.8617 14.8718 24.1226 14.9798 24.3149 15.1722C24.5073 15.3645 24.6153 15.6254 24.6153 15.8974V22.0513H30.7692C31.0412 22.0513 31.3021 22.1593 31.4944 22.3517C31.6868 22.544 31.7948 22.8049 31.7948 23.0769C31.7948 23.3489 31.6868 23.6098 31.4944 23.8022C31.3021 23.9945 31.0412 24.1026 30.7692 24.1026Z" fill="#238F4F"/>
<path d="M11.1538 3.57371C10.362 2.65925 9.47085 1.8358 8.49678 1.11858C8.41055 1.05818 8.30783 1.02578 8.20255 1.02578C8.09727 1.02578 7.99454 1.05818 7.90832 1.11858C6.93604 1.8361 6.0466 2.65954 5.25639 3.57371C3.49422 5.59743 2.56409 7.73076 2.56409 9.74358C2.56409 11.2397 3.15841 12.6745 4.21631 13.7324C5.2742 14.7903 6.70902 15.3846 8.20511 15.3846C9.70121 15.3846 11.136 14.7903 12.1939 13.7324C13.2518 12.6745 13.8461 11.2397 13.8461 9.74358C13.8461 7.73076 12.916 5.59743 11.1538 3.57371ZM3.58973 9.74358C3.58973 6.07499 7.1455 3.01282 8.20511 2.17948V14.359C6.98145 14.3576 5.8083 13.8709 4.94304 13.0057C4.07778 12.1404 3.59109 10.9672 3.58973 9.74358Z" fill="#238F4F"/>
</svg>
