<svg width="40" height="40" viewBox="0 0 40 40" fill="none" xmlns="http://www.w3.org/2000/svg">
<path d="M33.425 32.9094C33.5377 33.0304 33.6253 33.1727 33.6826 33.3278C33.7399 33.483 33.7659 33.648 33.759 33.8133C33.7521 33.9785 33.7124 34.1408 33.6424 34.2906C33.5723 34.4405 33.4732 34.5749 33.3508 34.6862C33.2284 34.7974 33.0851 34.8833 32.9292 34.9387C32.7734 34.9942 32.6081 35.0182 32.4429 35.0093C32.2778 35.0004 32.116 34.9588 31.967 34.887C31.818 34.8151 31.6848 34.7144 31.575 34.5906L29.5594 32.3734C26.9994 34.8613 23.5697 36.2521 20 36.25C12.5 36.25 6.32969 30.1672 6.25 22.675C6.20781 18.8719 7.53437 14.8875 10.1141 10.9859L6.60937 7.12969C6.38328 6.88755 6.25935 6.5675 6.26342 6.23623C6.2675 5.90497 6.39926 5.58806 6.63125 5.35156C6.75159 5.23522 6.89406 5.14423 7.05023 5.08399C7.20639 5.02375 7.37306 4.99549 7.54036 5.00088C7.70765 5.00628 7.87216 5.04521 8.02412 5.11538C8.17608 5.18555 8.3124 5.28553 8.425 5.40938L33.425 32.9094ZM31.8516 27.4625C31.9234 27.5416 32.0144 27.601 32.1158 27.6349C32.2171 27.6688 32.3255 27.6762 32.4305 27.6563C32.5356 27.6364 32.6337 27.5899 32.7156 27.5212C32.7976 27.4525 32.8605 27.364 32.8984 27.2641C33.4628 25.7392 33.7512 24.126 33.75 22.5C33.75 17.5938 31.4828 12.3938 27.1875 7.46094C25.2575 5.23193 23.0852 3.22477 20.7109 1.47656C20.5008 1.32933 20.2504 1.25035 19.9937 1.25035C19.7371 1.25035 19.4867 1.32933 19.2766 1.47656C17.231 2.9848 15.3367 4.6881 13.6203 6.5625C13.5145 6.67781 13.4557 6.82863 13.4557 6.98516C13.4557 7.14168 13.5145 7.29251 13.6203 7.40781L31.8516 27.4625Z" fill="#1763A6"/>
</svg>
