<svg width="40" height="40" viewBox="0 0 40 40" fill="none" xmlns="http://www.w3.org/2000/svg">
<path d="M33.3844 12.8656L24.6344 4.11563C24.5182 3.99958 24.3803 3.90756 24.2286 3.84483C24.0768 3.78209 23.9142 3.74987 23.75 3.75H8.75C8.08696 3.75 7.45107 4.01339 6.98223 4.48223C6.51339 4.95107 6.25 5.58696 6.25 6.25V33.75C6.25 34.413 6.51339 35.0489 6.98223 35.5178C7.45107 35.9866 8.08696 36.25 8.75 36.25H31.25C31.913 36.25 32.5489 35.9866 33.0178 35.5178C33.4866 35.0489 33.75 34.413 33.75 33.75V13.75C33.7501 13.5858 33.7179 13.4232 33.6552 13.2714C33.5924 13.1197 33.5004 12.9818 33.3844 12.8656ZM24.6344 25.8844L20.8844 29.6344C20.7683 29.7506 20.6304 29.8428 20.4787 29.9057C20.3269 29.9686 20.1643 30.001 20 30.001C19.8357 30.001 19.6731 29.9686 19.5213 29.9057C19.3696 29.8428 19.2317 29.7506 19.1156 29.6344L15.3656 25.8844C15.1311 25.6498 14.9993 25.3317 14.9993 25C14.9993 24.6683 15.1311 24.3502 15.3656 24.1156C15.6002 23.8811 15.9183 23.7493 16.25 23.7493C16.5817 23.7493 16.8998 23.8811 17.1344 24.1156L18.75 25.7328V18.75C18.75 18.4185 18.8817 18.1005 19.1161 17.8661C19.3505 17.6317 19.6685 17.5 20 17.5C20.3315 17.5 20.6495 17.6317 20.8839 17.8661C21.1183 18.1005 21.25 18.4185 21.25 18.75V25.7328L22.8656 24.1156C23.1002 23.8811 23.4183 23.7493 23.75 23.7493C24.0817 23.7493 24.3998 23.8811 24.6344 24.1156C24.8689 24.3502 25.0007 24.6683 25.0007 25C25.0007 25.3317 24.8689 25.6498 24.6344 25.8844ZM23.75 13.75V6.875L30.625 13.75H23.75Z" fill="#1763A6"/>
</svg>
