<svg width="18" height="20" viewBox="0 0 18 20" fill="none" xmlns="http://www.w3.org/2000/svg">
<path d="M17.1151 5.60962L11.7305 0.225C11.659 0.153589 11.5741 0.0969631 11.4807 0.0583569C11.3873 0.0197506 11.2873 -7.92199e-05 11.1862 2.37845e-07H1.95545C1.54743 2.37845e-07 1.15611 0.162088 0.867597 0.450605C0.57908 0.739123 0.416992 1.13044 0.416992 1.53846V18.4615C0.416992 18.8696 0.57908 19.2609 0.867597 19.5494C1.15611 19.8379 1.54743 20 1.95545 20H15.8016C16.2096 20 16.6009 19.8379 16.8895 19.5494C17.178 19.2609 17.3401 18.8696 17.3401 18.4615V6.15385C17.3401 6.0528 17.3203 5.95273 17.2817 5.85935C17.2431 5.76597 17.1865 5.68111 17.1151 5.60962ZM11.9555 14.6154H5.80161C5.59759 14.6154 5.40194 14.5343 5.25768 14.3901C5.11342 14.2458 5.03238 14.0502 5.03238 13.8462C5.03238 13.6421 5.11342 13.4465 5.25768 13.3022C5.40194 13.158 5.59759 13.0769 5.80161 13.0769H11.9555C12.1595 13.0769 12.3551 13.158 12.4994 13.3022C12.6436 13.4465 12.7247 13.6421 12.7247 13.8462C12.7247 14.0502 12.6436 14.2458 12.4994 14.3901C12.3551 14.5343 12.1595 14.6154 11.9555 14.6154ZM11.9555 11.5385H5.80161C5.59759 11.5385 5.40194 11.4574 5.25768 11.3132C5.11342 11.1689 5.03238 10.9732 5.03238 10.7692C5.03238 10.5652 5.11342 10.3696 5.25768 10.2253C5.40194 10.081 5.59759 10 5.80161 10H11.9555C12.1595 10 12.3551 10.081 12.4994 10.2253C12.6436 10.3696 12.7247 10.5652 12.7247 10.7692C12.7247 10.9732 12.6436 11.1689 12.4994 11.3132C12.3551 11.4574 12.1595 11.5385 11.9555 11.5385ZM11.1862 6.15385V1.92308L15.417 6.15385H11.1862Z" fill="#238F4F"/>
</svg>
