<svg width="29" height="28" viewBox="0 0 29 28" fill="none" xmlns="http://www.w3.org/2000/svg">
<path d="M4.06768 11.4146C3.88192 11.2289 3.73456 11.0084 3.63402 10.7657C3.53348 10.523 3.48173 10.2629 3.48173 10.0002C3.48173 9.73755 3.53348 9.47744 3.63402 9.23476C3.73456 8.99208 3.88192 8.77158 4.06768 8.58585L12.0677 0.585853C12.4428 0.210738 12.9516 -3.95249e-09 13.4821 0C14.0126 3.95248e-09 14.5213 0.210738 14.8964 0.585853C15.2715 0.960969 15.4823 1.46973 15.4823 2.00023C15.4823 2.53072 15.2715 3.03949 14.8964 3.4146L6.89643 11.4146C6.71071 11.6004 6.49021 11.7477 6.24753 11.8483C6.00485 11.9488 5.74474 12.0006 5.48206 12.0006C5.21938 12.0006 4.95927 11.9488 4.71659 11.8483C4.4739 11.7477 4.25341 11.6004 4.06768 11.4146ZM27.8964 13.5859C27.7107 13.4001 27.4902 13.2527 27.2475 13.1522C27.0048 13.0517 26.7447 12.9999 26.4821 12.9999C26.2194 12.9999 25.9593 13.0517 25.7166 13.1522C25.4739 13.2527 25.2534 13.4001 25.0677 13.5859L17.0677 21.5859C16.8819 21.7716 16.7346 21.9921 16.634 22.2348C16.5335 22.4774 16.4817 22.7375 16.4817 23.0002C16.4817 23.2629 16.5335 23.523 16.634 23.7657C16.7346 24.0084 16.8819 24.2289 17.0677 24.4146C17.2534 24.6004 17.4739 24.7477 17.7166 24.8483C17.9593 24.9488 18.2194 25.0006 18.4821 25.0006C18.7447 25.0006 19.0048 24.9488 19.2475 24.8483C19.4902 24.7477 19.7107 24.6004 19.8964 24.4146L27.8964 16.4146C28.0822 16.2289 28.2296 16.0084 28.3301 15.7657C28.4306 15.523 28.4824 15.2629 28.4824 15.0002C28.4824 14.7375 28.4306 14.4774 28.3301 14.2348C28.2296 13.9921 28.0822 13.7716 27.8964 13.5859ZM23.5077 11.6109L16.8714 4.9746C16.825 4.92812 16.7699 4.89124 16.7092 4.86607C16.6485 4.84091 16.5834 4.82796 16.5177 4.82796C16.452 4.82796 16.3869 4.84091 16.3262 4.86607C16.2655 4.89124 16.2104 4.92812 16.1639 4.9746L8.45643 12.6821C8.40994 12.7285 8.37306 12.7837 8.3479 12.8444C8.32274 12.9051 8.30979 12.9701 8.30979 13.0359C8.30979 13.1016 8.32274 13.1666 8.3479 13.2273C8.37306 13.288 8.40994 13.3432 8.45643 13.3896L10.3564 15.2934L1.06768 24.5871C0.708443 24.9652 0.511126 25.4687 0.517803 25.9902C0.52448 26.5118 0.734623 27.0101 1.10343 27.3789C1.47223 27.7477 1.97051 27.9578 2.49204 27.9645C3.01356 27.9712 3.51706 27.7738 3.89518 27.4146L13.1889 18.1259L15.0927 20.0296C15.1391 20.0761 15.1943 20.113 15.255 20.1381C15.3157 20.1633 15.3807 20.1762 15.4464 20.1762C15.5121 20.1762 15.5772 20.1633 15.6379 20.1381C15.6986 20.113 15.7537 20.0761 15.8002 20.0296L23.5077 12.3221C23.5547 12.2756 23.5921 12.2202 23.6176 12.1592C23.6431 12.0981 23.6562 12.0326 23.6562 11.9665C23.6562 11.9003 23.6431 11.8348 23.6176 11.7738C23.5921 11.7127 23.5547 11.6574 23.5077 11.6109Z" fill="#1763A6"/>
</svg>
