<svg width="27" height="27" viewBox="0 0 27 27" fill="none" xmlns="http://www.w3.org/2000/svg">
<path d="M26.5 13.4823C26.5 10.9111 25.7376 8.39773 24.3091 6.25989C22.8806 4.12205 20.8503 2.45581 18.4749 1.47187C16.0994 0.487932 13.4856 0.230489 10.9638 0.732096C8.44207 1.2337 6.12569 2.47183 4.30761 4.28992C2.48953 6.108 1.2514 8.42438 0.749792 10.9461C0.248184 13.4679 0.505626 16.0817 1.48957 18.4572C2.47351 20.8326 4.13975 22.863 6.27759 24.2914C8.41543 25.7199 10.9288 26.4823 13.5 26.4823C16.9467 26.4787 20.2512 25.1079 22.6884 22.6707C25.1256 20.2335 26.4964 16.929 26.5 13.4823ZM11.7925 18.1898L7.7925 14.1898C7.69952 14.0969 7.62576 13.9866 7.57544 13.8652C7.52512 13.7438 7.49921 13.6137 7.49921 13.4823C7.49921 13.3509 7.52512 13.2208 7.57544 13.0994C7.62576 12.978 7.69952 12.8677 7.7925 12.7748L11.7925 8.7748C11.9801 8.58716 12.2346 8.48175 12.5 8.48175C12.7654 8.48175 13.0199 8.58716 13.2075 8.7748C13.3951 8.96245 13.5006 9.21694 13.5006 9.4823C13.5006 9.74767 13.3951 10.0022 13.2075 10.1898L10.9137 12.4823L18.5 12.4823C18.7652 12.4823 19.0196 12.5877 19.2071 12.7752C19.3946 12.9627 19.5 13.2171 19.5 13.4823C19.5 13.7475 19.3946 14.0019 19.2071 14.1894C19.0196 14.3769 18.7652 14.4823 18.5 14.4823L10.9137 14.4823L13.2075 16.7748C13.3951 16.9624 13.5006 17.2169 13.5006 17.4823C13.5006 17.7477 13.3951 18.0022 13.2075 18.1898C13.0199 18.3774 12.7654 18.4829 12.5 18.4829C12.2346 18.4829 11.9801 18.3774 11.7925 18.1898Z" fill="#1763A6"/>
</svg>
