<?xml version="1.0" encoding="UTF-8"?>
<!DOCTYPE svg PUBLIC "-//W3C//DTD SVG 1.1//EN" "http://www.w3.org/Graphics/SVG/1.1/DTD/svg11.dtd">
<!-- Creator: CorelDRAW -->
<svg xmlns="http://www.w3.org/2000/svg" xml:space="preserve" width="152.61mm" height="88.2479mm" version="1.1" style="shape-rendering:geometricPrecision; text-rendering:geometricPrecision; image-rendering:optimizeQuality; fill-rule:evenodd; clip-rule:evenodd"
viewBox="0 0 32896.06 19022.45"
 xmlns:xlink="http://www.w3.org/1999/xlink"
 xmlns:xodm="http://www.corel.com/coreldraw/odm/2003">
 <defs>
  <style type="text/css">
   <![CDATA[
    .fil0 {fill:#0B6BC4;fill-rule:nonzero}
    .fil1 {fill:#44C2E7;fill-rule:nonzero}
   ]]>
  </style>
 </defs>
 <g id="Camada_x0020_1">
  <metadata id="CorelCorpID_0Corel-Layer"/>
  <path class="fil0" d="M177.19 0.02l5384.07 0c1093.65,0 1981.53,149.4 2655.19,445.36 673.66,298.78 1231.74,724.4 1674.3,1279.68 439.69,558.12 758.22,1203.56 955.52,1942.08 200.14,738.48 298.81,1519.27 298.81,2345.13 0,1293.79 -146.6,2297.21 -442.56,3010.36 -293.14,713.11 -701.83,1310.65 -1226.11,1792.66 -524.28,481.99 -1085.22,803.32 -1685.57,963.97 -820.26,219.89 -1564.38,329.8 -2229.57,329.8l-5384.07 0c-97.6,0 -177.19,-79.58 -177.19,-177.17l0 -11754.71c0,-97.58 79.58,-177.17 177.19,-177.17zm3560.38 2916.94l0 6258.27c0,97.58 79.58,177.17 177.19,177.17l741.69 0c783.59,0 1341.71,-87.39 1674.3,-259.32 329.8,-174.73 589.12,-476.36 777.97,-907.6 188.83,-434.09 281.86,-1133.1 281.86,-2102.72 0,-1282.52 -208.59,-2159.13 -628.56,-2632.66 -419.99,-473.51 -1116.2,-710.3 -2088.64,-710.3l-758.61 0c-97.6,0 -177.19,79.58 -177.19,177.17z"/>
  <path class="fil0" d="M13240.89 12109.06l-3432.14 0c-59.95,0 -111.57,-27.01 -145.65,-76.37 -34.12,-49.28 -41.3,-107.05 -20.13,-163.2l4424.46 -11754.75c26.47,-70.38 90.56,-114.74 165.78,-114.74l3850.08 0c75.27,0 139.44,44.47 165.87,114.98l4405.34 11754.71c21.06,56.13 13.84,113.88 -20.28,163.16 -34.12,49.21 -85.71,76.22 -145.61,76.22l-3530.97 0c-79.28,0 -146.51,-49.84 -169.56,-125.69 -838.62,-2761.72 -1674.27,-5524.45 -2512.66,-8286.27 -23.02,-75.81 -90.23,-125.65 -169.45,-125.69 -79.22,-0.11 -146.47,49.64 -169.58,125.45 -842.4,2762.15 -1683.72,5525.98 -2526.05,8286.74 -23.06,75.7 -90.21,125.45 -169.45,125.45z"/>
  <path class="fil0" d="M22875.27 0.02l9657.58 0c97.58,0 177.19,79.58 177.19,177.17l0 2233.19c0,97.58 -79.61,177.19 -177.19,177.19l-5903.11 0c-97.58,0 -177.17,79.58 -177.17,177.17l0 1573.63c0,97.58 79.58,177.17 177.17,177.17l5446.5 0c97.58,0 177.17,79.61 177.17,177.19l0 2114.83c0,97.58 -79.58,177.19 -177.17,177.19l-5446.5 0c-97.58,0 -177.17,79.58 -177.17,177.17l0 2030.24c0,97.6 79.58,177.19 177.17,177.19l6089.16 0c97.58,0 177.17,79.58 177.17,177.17l0 2385.4c0,97.58 -79.58,177.17 -177.17,177.17l-9843.63 0c-97.58,0 -177.19,-79.58 -177.19,-177.17l0 -11754.71c0,-97.58 79.61,-177.17 177.19,-177.17z"/>
  <path class="fil1" d="M1313.11 14628.13c157.96,0 296.54,31.3 415.72,93.88 119.2,62.58 211.35,151.71 276.41,267.42 65.1,115.69 97.65,249.94 97.65,402.75 0,152.81 -32.55,287.06 -97.65,402.77 -65.06,115.69 -157.21,204.82 -276.41,267.4 -119.18,62.58 -257.76,93.88 -415.72,93.88l-629.6 0 0 -1528.08 629.6 0zm0 1215.91c128.73,0 232.54,-40.74 311.52,-122.24 78.98,-81.5 118.45,-191.37 118.45,-329.63 0,-91.68 -17.91,-171.37 -53.74,-239.03 -35.83,-67.66 -86.29,-120.07 -151.34,-157.18 -65.1,-37.1 -140.07,-55.66 -224.89,-55.66l-269.83 0 0 903.74 269.83 0zm1384.31 10.93l846.79 0 0 301.24 -1195.61 0 0 -1528.08 1171.47 0 0 299.06 -822.65 0 0 309.99 778.79 0 0 288.16 -778.79 0 0 329.63zm1847.13 -1226.84c118.49,0 221.96,22.2 310.42,66.59 88.51,44.38 156.86,108.06 205.12,191.01 48.26,82.97 72.41,179.73 72.41,290.33 0,110.6 -24.14,207.39 -72.41,290.33 -48.26,82.97 -116.62,146.62 -205.12,191.03 -88.46,44.38 -191.93,66.56 -310.42,66.56l-375.11 0 0 432.23 -359.79 0 0 -1528.08 734.9 0zm-17.55 783.7c76.07,0 136.4,-21.1 181,-63.31 44.6,-42.21 66.91,-98.96 66.91,-170.27 0,-71.33 -22.31,-128.08 -66.91,-170.29 -44.6,-42.18 -104.93,-63.29 -181,-63.29l-359.76 0 0 467.16 359.76 0zm1893.26 744.38l-114.09 -275.05 -756.84 0 -114.07 275.05 -383.93 0 688.86 -1528.08 383.93 0 684.44 1528.08 -388.28 0zm-489.21 -1185.35l-252.29 602.5 500.16 0 -247.87 -602.5zm1597.06 681.07l-208.42 0 0 504.27 -359.76 0 0 -1528.08 748.07 0c111.16,0 208.42,21.47 291.78,64.41 83.36,42.92 147.72,103.68 193.05,182.27 45.33,78.59 68.01,168.82 68.01,270.7 0,116.42 -30.35,216.1 -91.03,299.06 -60.7,82.95 -146.64,141.88 -257.78,176.82l434.37 534.82 -427.79 0 -390.48 -504.27zm377.31 -502.08c0,-68.4 -20.82,-121.51 -62.51,-159.36 -41.67,-37.83 -100.54,-56.76 -176.58,-56.76l-348.81 0 0 430.06 348.81 0c77.49,0 136.73,-18.56 177.68,-55.68 40.96,-37.1 61.41,-89.87 61.41,-158.26zm1783.54 -521.73l0 312.17 -469.44 0 0 1215.91 -359.79 0 0 -1215.91 -467.28 0 0 -312.17 1296.51 0zm1246.09 1528.08l-114.09 -275.05 -756.84 0 -114.07 275.05 -383.93 0 688.86 -1528.08 383.93 0 684.44 1528.08 -388.28 0zm-489.21 -1185.35l-252.29 602.5 500.16 0 -247.87 -602.5zm2399.99 -342.74l322.47 0 0 1528.08 -357.57 0 0 -956.15 -451.94 550.12 -70.21 0 -456.29 -552.3 0 958.32 -357.59 0 0 -1528.08 322.47 0 524.32 650.53 524.32 -650.53zm1004.75 1226.84l846.77 0 0 301.24 -1195.59 0 0 -1528.08 1171.47 0 0 299.06 -822.65 0 0 309.99 778.79 0 0 288.16 -778.79 0 0 329.63zm2125.76 -1226.84l357.59 0 0 1528.08 -322.49 0 -695.43 -945.22 4.4 412.58 0 532.64 -357.59 0 0 -1528.08 322.47 0 695.43 949.59 -4.38 -408.2 0 -541.39zm1855.95 0l0 312.17 -469.46 0 0 1215.91 -359.79 0 0 -1215.91 -467.28 0 0 -312.17 1296.53 0zm910.43 1565.2c-165.27,0 -310.42,-33.11 -435.47,-99.33 -125.04,-66.22 -221.57,-159.73 -289.58,-280.53 -68.03,-120.78 -102,-261.21 -102,-421.31 0,-160.07 33.97,-300.51 102,-421.31 68.01,-120.8 164.53,-214.31 289.58,-280.5 125.04,-66.22 270.2,-99.33 435.47,-99.33 165.27,0 310.42,33.11 435.47,99.33 125.04,66.2 221.57,159.71 289.58,280.5 67.99,120.8 102,261.23 102,421.31 0,160.09 -34.01,300.53 -102,421.31 -68.01,120.8 -164.53,214.31 -289.58,280.53 -125.04,66.22 -270.2,99.33 -435.47,99.33zm0 -318.72c92.13,0 173.67,-20 244.61,-60.03 70.92,-40.03 125.78,-96.42 164.53,-169.17 38.74,-72.77 58.14,-157.18 58.14,-253.24 0,-96.05 -19.4,-180.46 -58.14,-253.21 -38.76,-72.77 -93.62,-129.16 -164.53,-169.19 -70.94,-40.01 -152.49,-60.03 -244.61,-60.03 -92.13,0 -173.31,20.03 -243.51,60.03 -70.21,40.03 -124.68,96.42 -163.44,169.19 -38.76,72.75 -58.16,157.16 -58.16,253.21 0,96.05 19.4,180.46 58.16,253.24 38.76,72.75 93.23,129.14 163.44,169.17 70.21,40.03 151.39,60.03 243.51,60.03zm2215.71 -1246.48c157.96,0 296.54,31.3 415.72,93.88 119.2,62.58 211.33,151.71 276.41,267.42 65.1,115.69 97.65,249.94 97.65,402.75 0,152.81 -32.55,287.06 -97.65,402.77 -65.08,115.69 -157.21,204.82 -276.41,267.4 -119.18,62.58 -257.76,93.88 -415.72,93.88l-629.6 0 0 -1528.08 629.6 0zm0 1215.91c128.71,0 232.54,-40.74 311.52,-122.24 78.98,-81.5 118.45,-191.37 118.45,-329.63 0,-91.68 -17.91,-171.37 -53.74,-239.03 -35.83,-67.66 -86.29,-120.07 -151.36,-157.18 -65.1,-37.1 -140.05,-55.66 -224.87,-55.66l-269.83 0 0 903.74 269.83 0zm1384.31 10.93l846.77 0 0 301.24 -1195.59 0 0 -1528.08 1171.47 0 0 299.06 -822.65 0 0 309.99 778.79 0 0 288.16 -778.79 0 0 329.63zm2742.21 301.24l-114.07 -275.05 -756.84 0 -114.07 275.05 -383.93 0 688.83 -1528.08 383.93 0 684.46 1528.08 -388.3 0zm-489.21 -1185.35l-252.29 602.5 500.18 0 -247.89 -602.5zm-6.57 -794.61l386.11 0 -245.71 314.35 -302.75 0 162.36 -314.35zm2364.9 1076.21l0 681.07c-77.51,82.97 -172.94,146.62 -286.3,191.03 -113.34,44.38 -238,66.56 -374.01,66.56 -162.36,0 -304.58,-32.74 -426.7,-98.23 -122.13,-65.49 -216.48,-158.63 -283,-279.43 -66.54,-120.78 -99.82,-261.21 -99.82,-421.31 0,-155.72 35.09,-294.34 105.3,-415.85 70.19,-121.51 168.57,-216.12 295.08,-283.78 126.51,-67.68 271.64,-101.51 435.47,-101.51 118.47,0 225.58,20.37 321.37,61.11 95.79,40.76 183.91,102.61 264.36,185.55l-217.17 213.94c-48.26,-48.03 -104.95,-85.15 -170.03,-111.34 -65.08,-26.19 -131.99,-39.3 -200.73,-39.3 -147.72,0 -264.34,44.02 -349.91,132.07 -85.58,88.06 -128.32,207.75 -128.32,359.1 0,97.52 18.99,183.37 57.04,257.59 38,74.22 92.13,131.71 162.34,172.47 70.19,40.74 151.34,61.11 243.51,61.11 144.79,0 260.31,-37.1 346.62,-111.34l0 -233.58 -416.84 0 0 -285.96 721.77 0zm941.14 936.49c-220.86,0 -392.34,-60.77 -514.45,-182.27 -122.13,-121.51 -183.18,-291.43 -183.18,-509.73l0 -868.82 359.79 0 0 868.82c0,116.42 29.6,208.12 88.85,275.05 59.24,66.95 142.22,100.43 248.99,100.43 103.83,0 185.72,-33.48 245.69,-100.43 59.97,-66.93 89.95,-158.63 89.95,-275.05l0 -868.82 359.79 0 0 868.82c0,218.29 -60.7,388.22 -182.1,509.73 -121.36,121.51 -292.51,182.27 -513.33,182.27zm2138.93 -32.74l-114.07 -275.05 -756.84 0 -114.07 275.05 -383.93 0 688.86 -1528.08 383.93 0 684.44 1528.08 -388.3 0zm-489.21 -1185.35l-252.27 602.5 500.16 0 -247.89 -602.5zm1820.85 884.11l846.79 0 0 301.24 -1195.61 0 0 -1528.08 1171.47 0 0 299.06 -822.65 0 0 309.99 778.79 0 0 288.16 -778.79 0 0 329.63zm-31015.72 2829.12l846.77 0 0 301.24 -1195.59 0 0 -1528.08 1171.47 0 0 299.06 -822.65 0 0 309.99 778.79 0 0 288.16 -778.79 0 0 329.63zm1680.42 336.16c-125.78,0 -246.79,-18.9 -363.08,-56.76 -116.25,-37.83 -216.81,-90.94 -301.63,-159.34l186.48 -259.79c136.02,106.25 294.69,159.36 476.06,159.36 90.64,0 162.68,-15.28 216.07,-45.85 53.37,-30.54 80.06,-72.04 80.06,-124.42 0,-49.49 -24.85,-88.06 -74.58,-115.69 -49.73,-27.66 -128.69,-47.31 -236.92,-58.95 -209.15,-23.28 -362.35,-72.04 -459.61,-146.26 -97.24,-74.22 -145.87,-180.46 -145.87,-318.7 0,-93.14 26.32,-175.38 78.98,-246.68 52.64,-71.31 126.51,-126.62 221.55,-165.91 95.06,-39.3 204.76,-58.93 329.09,-58.93 106.74,0 210.94,15.28 312.6,45.85 101.64,30.54 191.22,73.48 268.73,128.8l-168.91 251.04c-119.94,-82.95 -252.31,-124.44 -397.1,-124.44 -89.2,0 -160.48,14.57 -213.88,43.67 -53.39,29.1 -80.08,68.4 -80.08,117.87 0,48.03 23.04,85.15 69.11,111.34 46.06,26.19 123.21,45.85 231.44,58.95 207.67,23.28 362.72,74.58 465.09,153.89 102.39,79.32 153.56,188.1 153.56,326.35 0,96.05 -27.05,180.83 -81.16,254.31 -54.13,73.5 -130.17,130.26 -228.15,170.27 -98.01,40.03 -210.62,60.03 -337.86,60.03zm2259.6 -938.66l0 681.07c-77.51,82.97 -172.92,146.62 -286.28,191.03 -113.34,44.38 -238.02,66.56 -374.03,66.56 -162.34,0 -304.58,-32.74 -426.7,-98.23 -122.11,-65.49 -216.46,-158.63 -282.98,-279.43 -66.54,-120.78 -99.82,-261.21 -99.82,-421.31 0,-155.72 35.09,-294.34 105.3,-415.85 70.19,-121.51 168.57,-216.12 295.08,-283.78 126.49,-67.68 271.64,-101.51 435.45,-101.51 118.47,0 225.6,20.37 321.4,61.11 95.79,40.76 183.91,102.61 264.34,185.55l-217.17 213.94c-48.26,-48.03 -104.95,-85.15 -170.01,-111.34 -65.08,-26.19 -132.01,-39.3 -200.73,-39.3 -147.72,0 -264.36,44.02 -349.91,132.07 -85.58,88.06 -128.34,207.75 -128.34,359.1 0,97.52 19.01,183.37 57.04,257.59 38.02,74.22 92.13,131.71 162.34,172.47 70.19,40.74 151.36,61.11 243.51,61.11 144.79,0 260.33,-37.1 346.62,-111.34l0 -233.58 -416.82 0 0 -285.96 721.75 0zm1006.97 940.86c-165.27,0 -310.42,-33.11 -435.47,-99.33 -125.07,-66.22 -221.59,-159.73 -289.58,-280.53 -68.03,-120.78 -102.02,-261.21 -102.02,-421.31 0,-160.07 33.99,-300.51 102.02,-421.31 67.99,-120.8 164.51,-214.31 289.58,-280.5 125.04,-66.22 270.2,-99.33 435.47,-99.33 165.25,0 310.42,33.11 435.45,99.33 125.07,66.2 221.59,159.71 289.58,280.5 68.01,120.8 102.02,261.23 102.02,421.31 0,160.09 -34.01,300.53 -102.02,421.31 -67.99,120.8 -164.51,214.31 -289.58,280.53 -125.02,66.22 -270.2,99.33 -435.45,99.33zm0 -318.72c92.13,0 173.65,-20 244.61,-60.03 70.92,-40.03 125.76,-96.42 164.51,-169.17 38.76,-72.77 58.14,-157.18 58.14,-253.24 0,-96.05 -19.38,-180.46 -58.14,-253.21 -38.76,-72.77 -93.59,-129.16 -164.51,-169.19 -70.96,-40.01 -152.49,-60.03 -244.61,-60.03 -92.13,0 -173.31,20.03 -243.51,60.03 -70.21,40.03 -124.7,96.42 -163.46,169.19 -38.74,72.75 -58.14,157.16 -58.14,253.21 0,96.05 19.4,180.46 58.14,253.24 38.76,72.75 93.25,129.14 163.46,169.17 70.21,40.03 151.39,60.03 243.51,60.03zm2209.11 -1246.48l0 312.17 -469.44 0 0 1215.91 -359.81 0 0 -1215.91 -467.28 0 0 -312.17 1296.53 0zm910.43 1565.2c-165.25,0 -310.42,-33.11 -435.45,-99.33 -125.07,-66.22 -221.59,-159.73 -289.6,-280.53 -68.01,-120.78 -102,-261.21 -102,-421.31 0,-160.07 33.99,-300.51 102,-421.31 68.01,-120.8 164.53,-214.31 289.6,-280.5 125.02,-66.22 270.2,-99.33 435.45,-99.33 165.27,0 310.42,33.11 435.47,99.33 125.07,66.2 221.59,159.71 289.58,280.5 68.01,120.8 102.02,261.23 102.02,421.31 0,160.09 -34.01,300.53 -102.02,421.31 -67.99,120.8 -164.51,214.31 -289.58,280.53 -125.04,66.22 -270.2,99.33 -435.47,99.33zm0 -318.72c92.13,0 173.67,-20 244.61,-60.03 70.94,-40.03 125.78,-96.42 164.53,-169.17 38.76,-72.77 58.14,-157.18 58.14,-253.24 0,-96.05 -19.38,-180.46 -58.14,-253.21 -38.76,-72.77 -93.59,-129.16 -164.53,-169.19 -70.94,-40.01 -152.49,-60.03 -244.61,-60.03 -92.13,0 -173.29,20.03 -243.49,60.03 -70.21,40.03 -124.7,96.42 -163.46,169.19 -38.76,72.75 -58.14,157.16 -58.14,253.21 0,96.05 19.38,180.46 58.14,253.24 38.76,72.75 93.25,129.14 163.46,169.17 70.21,40.03 151.36,60.03 243.49,60.03zm2215.71 -1246.48c157.96,0 296.54,31.3 415.72,93.88 119.22,62.58 211.35,151.71 276.43,267.42 65.1,115.69 97.63,249.94 97.63,402.75 0,152.81 -32.53,287.06 -97.63,402.77 -65.08,115.69 -157.21,204.82 -276.43,267.4 -119.18,62.58 -257.76,93.88 -415.72,93.88l-629.6 0 0 -1528.08 629.6 0zm0 1215.91c128.73,0 232.54,-40.74 311.54,-122.24 78.98,-81.5 118.45,-191.37 118.45,-329.63 0,-91.68 -17.91,-171.37 -53.76,-239.03 -35.83,-67.66 -86.27,-120.07 -151.34,-157.18 -65.1,-37.1 -140.05,-55.66 -224.89,-55.66l-269.81 0 0 903.74 269.81 0zm1384.31 10.93l846.79 0 0 301.24 -1195.61 0 0 -1528.08 1171.47 0 0 299.06 -822.65 0 0 309.99 778.79 0 0 288.16 -778.79 0 0 329.63zm2628.14 -1226.84l397.08 0 -631.8 1528.08 -379.53 0 -631.82 -1528.08 397.08 0 206.2 519.56 217.2 593.77 221.57 -593.77 204.02 -519.56zm1577.32 1528.08l-114.07 -275.05 -756.84 0 -114.07 275.05 -383.93 0 688.86 -1528.08 383.91 0 684.46 1528.08 -388.3 0zm-489.21 -1185.35l-252.27 602.5 500.16 0 -247.89 -602.5zm-6.57 -794.61l386.11 0 -245.71 314.35 -302.73 0 162.34 -314.35zm1603.66 1475.68l-208.42 0 0 504.27 -359.76 0 0 -1528.08 748.07 0c111.14,0 208.4,21.47 291.78,64.41 83.36,42.92 147.7,103.68 193.05,182.27 45.33,78.59 67.99,168.82 67.99,270.7 0,116.42 -30.35,216.1 -91.03,299.06 -60.68,82.95 -146.62,141.88 -257.78,176.82l434.39 534.82 -427.79 0 -390.48 -504.27zm377.31 -502.08c0,-68.4 -20.84,-121.51 -62.51,-159.36 -41.69,-37.83 -100.54,-56.76 -176.61,-56.76l-348.81 0 0 430.06 348.81 0c77.51,0 136.75,-18.56 177.71,-55.68 40.93,-37.1 61.41,-89.87 61.41,-158.26zm1033.27 694.18l752.49 0 0 312.17 -1254.86 0 0 -133.17 745.89 -1091.47 -697.63 0 0 -303.44 1193.43 0 0 128.8 -739.32 1087.12zm1342.62 10.93l846.77 0 0 301.24 -1195.59 0 0 -1528.08 1171.47 0 0 299.06 -822.65 0 0 309.99 778.79 0 0 288.16 -778.79 0 0 329.63zm2299.07 301.24l-114.09 -275.05 -756.84 0 -114.07 275.05 -383.93 0 688.86 -1528.08 383.93 0 684.44 1528.08 -388.28 0zm-489.21 -1185.35l-252.29 602.5 500.16 0 -247.87 -602.5zm2854.1 281.6l0 681.07c-77.51,82.97 -172.94,146.62 -286.3,191.03 -113.34,44.38 -238,66.56 -374.01,66.56 -162.36,0 -304.58,-32.74 -426.7,-98.23 -122.13,-65.49 -216.48,-158.63 -283,-279.43 -66.54,-120.78 -99.82,-261.21 -99.82,-421.31 0,-155.72 35.09,-294.34 105.3,-415.85 70.21,-121.51 168.57,-216.12 295.08,-283.78 126.51,-67.68 271.64,-101.51 435.47,-101.51 118.47,0 225.58,20.37 321.37,61.11 95.79,40.76 183.91,102.61 264.36,185.55l-217.17 213.94c-48.26,-48.03 -104.95,-85.15 -170.03,-111.34 -65.08,-26.19 -131.99,-39.3 -200.73,-39.3 -147.72,0 -264.34,44.02 -349.91,132.07 -85.58,88.06 -128.32,207.75 -128.32,359.1 0,97.52 18.99,183.37 57.04,257.59 38,74.22 92.13,131.71 162.34,172.47 70.19,40.74 151.36,61.11 243.51,61.11 144.79,0 260.31,-37.1 346.62,-111.34l0 -233.58 -416.82 0 0 -285.96 721.75 0zm835.84 399.47l-208.42 0 0 504.27 -359.76 0 0 -1528.08 748.07 0c111.14,0 208.42,21.47 291.78,64.41 83.36,42.92 147.72,103.68 193.05,182.27 45.33,78.59 68.01,168.82 68.01,270.7 0,116.42 -30.35,216.1 -91.03,299.06 -60.7,82.95 -146.64,141.88 -257.78,176.82l434.37 534.82 -427.79 0 -390.48 -504.27zm377.31 -502.08c0,-68.4 -20.84,-121.51 -62.51,-159.36 -41.69,-37.83 -100.54,-56.76 -176.58,-56.76l-348.81 0 0 430.06 348.81 0c77.49,0 136.73,-18.56 177.68,-55.68 40.96,-37.1 61.41,-89.87 61.41,-158.26zm1829.63 1006.35l-114.07 -275.05 -756.84 0 -114.09 275.05 -383.91 0 688.83 -1528.08 383.93 0 684.46 1528.08 -388.3 0zm-489.21 -1185.35l-252.29 602.5 500.18 0 -247.89 -602.5zm2042.4 -342.74l357.59 0 0 1528.08 -322.49 0 -695.43 -945.22 4.4 412.58 0 532.64 -357.59 0 0 -1528.08 322.47 0 695.43 949.59 -4.38 -408.2 0 -541.39zm1320.65 0c157.98,0 296.54,31.3 415.72,93.88 119.22,62.58 211.35,151.71 276.43,267.42 65.1,115.69 97.63,249.94 97.63,402.75 0,152.81 -32.53,287.06 -97.63,402.77 -65.08,115.69 -157.21,204.82 -276.43,267.4 -119.18,62.58 -257.74,93.88 -415.72,93.88l-629.6 0 0 -1528.08 629.6 0zm0 1215.91c128.73,0 232.56,-40.74 311.54,-122.24 78.98,-81.5 118.45,-191.37 118.45,-329.63 0,-91.68 -17.91,-171.37 -53.76,-239.03 -35.83,-67.66 -86.27,-120.07 -151.34,-157.18 -65.1,-37.1 -140.05,-55.66 -224.89,-55.66l-269.81 0 0 903.74 269.81 0zm1384.31 10.93l846.79 0 0 301.24 -1195.61 0 0 -1528.08 1171.47 0 0 299.06 -822.65 0 0 309.99 778.79 0 0 288.16 -778.79 0 0 329.63z"/>
 </g>
</svg>
