<svg width="24" height="24" viewBox="0 0 24 24" fill="none" xmlns="http://www.w3.org/2000/svg">
<path d="M1.00013 12H22.0001C22.1327 12 22.2599 11.9473 22.3537 11.8536C22.4475 11.7598 22.5001 11.6326 22.5001 11.5V8C22.5002 7.86864 22.4745 7.73855 22.4243 7.61715C22.3741 7.49576 22.3005 7.38544 22.2076 7.2925L15.2076 0.2925C15.1147 0.199666 15.0044 0.126052 14.883 0.0758639C14.7616 0.0256758 14.6315 -0.000102986 14.5001 3.09198e-07H2.50013C1.9697 3.09198e-07 1.46099 0.210714 1.08592 0.585787C0.710843 0.960859 0.500129 1.46957 0.500129 2V11.5C0.500129 11.6326 0.552808 11.7598 0.646576 11.8536C0.740344 11.9473 0.867521 12 1.00013 12ZM14.5001 2.5L20.0001 8H14.5001V2.5ZM23.5001 16.0662C23.4778 16.3233 23.359 16.5624 23.1678 16.7355C22.9765 16.9087 22.7269 17.0032 22.4689 17H19.5001V19H21.4664C21.7244 18.9965 21.9743 19.0909 22.1656 19.2641C22.3569 19.4374 22.4755 19.6766 22.4976 19.9338C22.5067 20.0705 22.4876 20.2077 22.4414 20.3368C22.3952 20.4659 22.323 20.5841 22.2292 20.6841C22.1355 20.7841 22.0221 20.8637 21.8963 20.9181C21.7704 20.9724 21.6347 21.0003 21.4976 21H19.5001V22.9662C19.5036 23.2243 19.4092 23.4741 19.236 23.6655C19.0628 23.8568 18.8235 23.9754 18.5664 23.9975C18.4296 24.0066 18.2924 23.9874 18.1633 23.9413C18.0342 23.8951 17.916 23.8229 17.816 23.7291C17.7161 23.6353 17.6364 23.522 17.5821 23.3961C17.5277 23.2703 17.4998 23.1346 17.5001 22.9975V16C17.5001 15.7348 17.6055 15.4804 17.793 15.2929C17.9806 15.1054 18.2349 15 18.5001 15H22.5001C22.6372 14.9997 22.7729 15.0276 22.8988 15.0819C23.0246 15.1363 23.138 15.2159 23.2317 15.3159C23.3255 15.4159 23.3977 15.5341 23.4439 15.6632C23.4901 15.7923 23.5092 15.9295 23.5001 16.0662ZM3.50013 15H1.50013C1.23491 15 0.980559 15.1054 0.793023 15.2929C0.605486 15.4804 0.500129 15.7348 0.500129 16V22.9662C0.496017 23.2247 0.590098 23.4752 0.763393 23.667C0.936687 23.8589 1.1763 23.9779 1.43388 24C1.57067 24.0091 1.70786 23.9899 1.83694 23.9438C1.96602 23.8976 2.08422 23.8254 2.18422 23.7316C2.28421 23.6378 2.36385 23.5245 2.4182 23.3986C2.47254 23.2728 2.50043 23.1371 2.50013 23V22H3.42513C5.33013 22 6.94263 20.51 6.99888 18.6063C7.0131 18.1379 6.93313 17.6714 6.7637 17.2345C6.59426 16.7976 6.33882 16.3992 6.01252 16.0629C5.68622 15.7265 5.29571 15.4591 4.86414 15.2766C4.43257 15.094 3.96873 15 3.50013 15ZM3.45638 20H2.50013V17H3.50013C3.70993 16.999 3.9176 17.0421 4.10973 17.1263C4.30186 17.2106 4.47418 17.3343 4.61554 17.4893C4.7569 17.6443 4.86417 17.8273 4.93042 18.0264C4.99666 18.2254 5.02041 18.4362 5.00013 18.645C4.95649 19.022 4.77439 19.3694 4.48915 19.6197C4.20392 19.8701 3.83587 20.0056 3.45638 20ZM11.5001 15H9.50013C9.23491 15 8.98056 15.1054 8.79302 15.2929C8.60549 15.4804 8.50013 15.7348 8.50013 16V23C8.50013 23.2652 8.60549 23.5196 8.79302 23.7071C8.98056 23.8946 9.23491 24 9.50013 24H11.4151C13.8726 24 15.9414 22.065 15.9989 19.6087C16.0134 19.0088 15.9077 18.412 15.6882 17.8535C15.4686 17.2951 15.1396 16.7861 14.7204 16.3567C14.3012 15.9272 13.8003 15.586 13.2473 15.353C12.6943 15.12 12.1002 15 11.5001 15ZM11.4389 22H10.5001V17H11.5001C11.8367 16.9998 12.1698 17.0675 12.4796 17.1991C12.7894 17.3307 13.0694 17.5235 13.3028 17.7659C13.5363 18.0084 13.7184 18.2954 13.8382 18.61C13.958 18.9245 14.0131 19.2599 14.0001 19.5963C13.9476 20.9487 12.7926 22 11.4389 22Z" fill="#1763A6"/>
</svg>
