<svg width="27" height="27" viewBox="0 0 27 27" fill="none" xmlns="http://www.w3.org/2000/svg">
<path d="M0.499999 13.4823C0.5 16.0535 1.26244 18.5669 2.69089 20.7047C4.11935 22.8425 6.14968 24.5088 8.52511 25.4927C10.9006 26.4767 13.5144 26.7341 16.0362 26.2325C18.5579 25.7309 20.8743 24.4928 22.6924 22.6747C24.5105 20.8566 25.7486 18.5402 26.2502 16.0185C26.7518 13.4967 26.4944 10.8828 25.5104 8.50741C24.5265 6.13197 22.8602 4.10165 20.7224 2.67319C18.5846 1.24473 16.0712 0.482293 13.5 0.482294C10.0533 0.485933 6.74881 1.85674 4.31163 4.29393C1.87445 6.73111 0.503639 10.0356 0.499999 13.4823ZM15.2075 8.77479L19.2075 12.7748C19.3005 12.8677 19.3742 12.978 19.4246 13.0994C19.4749 13.2208 19.5008 13.3509 19.5008 13.4823C19.5008 13.6137 19.4749 13.7438 19.4246 13.8652C19.3742 13.9866 19.3005 14.0969 19.2075 14.1898L15.2075 18.1898C15.0199 18.3774 14.7654 18.4828 14.5 18.4828C14.2346 18.4828 13.9801 18.3774 13.7925 18.1898C13.6049 18.0022 13.4994 17.7477 13.4994 17.4823C13.4994 17.2169 13.6049 16.9624 13.7925 16.7748L16.0862 14.4823L8.5 14.4823C8.23478 14.4823 7.98043 14.3769 7.79289 14.1894C7.60536 14.0019 7.5 13.7475 7.5 13.4823C7.5 13.2171 7.60536 12.9627 7.79289 12.7752C7.98043 12.5876 8.23478 12.4823 8.5 12.4823L16.0862 12.4823L13.7925 10.1898C13.6049 10.0022 13.4994 9.74766 13.4994 9.48229C13.4994 9.21693 13.6049 8.96243 13.7925 8.77479C13.9801 8.58715 14.2346 8.48174 14.5 8.48174C14.7654 8.48174 15.0199 8.58715 15.2075 8.77479Z" fill="#1763A6"/>
</svg>
