<svg width="40" height="40" viewBox="0 0 40 40" fill="none" xmlns="http://www.w3.org/2000/svg">
<path d="M35 7.5V23.75C35 24.413 34.7366 25.0489 34.2678 25.5178C33.7989 25.9866 33.163 26.25 32.5 26.25H17.5V28.75C17.5002 28.9974 17.427 29.2392 17.2896 29.445C17.1523 29.6507 16.957 29.8111 16.7285 29.9058C16.5 30.0005 16.2485 30.0252 16.0059 29.9769C15.7633 29.9286 15.5404 29.8094 15.3656 29.6344L11.6156 25.8844C11.4994 25.7683 11.4072 25.6304 11.3443 25.4787C11.2814 25.3269 11.249 25.1643 11.249 25C11.249 24.8357 11.2814 24.6731 11.3443 24.5213C11.4072 24.3696 11.4994 24.2317 11.6156 24.1156L15.3656 20.3656C15.5404 20.1906 15.7633 20.0714 16.0059 20.0231C16.2485 19.9748 16.5 19.9995 16.7285 20.0942C16.957 20.1889 17.1523 20.3493 17.2896 20.555C17.427 20.7608 17.5002 21.0026 17.5 21.25V23.75H32.5V7.5H15V8.75C15 9.08152 14.8683 9.39946 14.6339 9.63388C14.3995 9.8683 14.0815 10 13.75 10C13.4185 10 13.1005 9.8683 12.8661 9.63388C12.6317 9.39946 12.5 9.08152 12.5 8.75V7.5C12.5 6.83696 12.7634 6.20107 13.2322 5.73223C13.7011 5.26339 14.337 5 15 5H32.5C33.163 5 33.7989 5.26339 34.2678 5.73223C34.7366 6.20107 35 6.83696 35 7.5ZM26.25 30C25.9185 30 25.6005 30.1317 25.3661 30.3661C25.1317 30.6005 25 30.9185 25 31.25V32.5H7.5V16.25H22.5V18.75C22.4998 18.9974 22.573 19.2392 22.7104 19.445C22.8477 19.6507 23.043 19.8111 23.2715 19.9058C23.5 20.0005 23.7515 20.0252 23.9941 19.9769C24.2367 19.9286 24.4596 19.8094 24.6344 19.6344L28.3844 15.8844C28.5006 15.7683 28.5928 15.6304 28.6557 15.4787C28.7186 15.3269 28.751 15.1643 28.751 15C28.751 14.8357 28.7186 14.6731 28.6557 14.5213C28.5928 14.3696 28.5006 14.2317 28.3844 14.1156L24.6344 10.3656C24.4596 10.1906 24.2367 10.0714 23.9941 10.0231C23.7515 9.97478 23.5 9.99953 23.2715 10.0942C23.043 10.1889 22.8477 10.3493 22.7104 10.555C22.573 10.7608 22.4998 11.0026 22.5 11.25V13.75H7.5C6.83696 13.75 6.20107 14.0134 5.73223 14.4822C5.26339 14.9511 5 15.587 5 16.25V32.5C5 33.163 5.26339 33.7989 5.73223 34.2678C6.20107 34.7366 6.83696 35 7.5 35H25C25.663 35 26.2989 34.7366 26.7678 34.2678C27.2366 33.7989 27.5 33.163 27.5 32.5V31.25C27.5 30.9185 27.3683 30.6005 27.1339 30.3661C26.8995 30.1317 26.5815 30 26.25 30Z" fill="#1763A6"/>
</svg>
