<svg width="19" height="20" viewBox="0 0 19 20" fill="none" xmlns="http://www.w3.org/2000/svg">
<path d="M16.9231 1.53846H14.6154V0.769231C14.6154 0.565218 14.5343 0.369561 14.3901 0.225302C14.2458 0.0810437 14.0502 0 13.8462 0C13.6421 0 13.4465 0.0810437 13.3022 0.225302C13.158 0.369561 13.0769 0.565218 13.0769 0.769231V1.53846H5.38462V0.769231C5.38462 0.565218 5.30357 0.369561 5.15931 0.225302C5.01505 0.0810437 4.8194 0 4.61538 0C4.41137 0 4.21572 0.0810437 4.07146 0.225302C3.9272 0.369561 3.84615 0.565218 3.84615 0.769231V1.53846H1.53846C1.13044 1.53846 0.739122 1.70055 0.450605 1.98907C0.162087 2.27758 0 2.6689 0 3.07692V18.4615C0 18.8696 0.162087 19.2609 0.450605 19.5494C0.739122 19.8379 1.13044 20 1.53846 20H16.9231C17.3311 20 17.7224 19.8379 18.0109 19.5494C18.2995 19.2609 18.4615 18.8696 18.4615 18.4615V3.07692C18.4615 2.6689 18.2995 2.27758 18.0109 1.98907C17.7224 1.70055 17.3311 1.53846 16.9231 1.53846ZM5 16.1538C4.77179 16.1538 4.54871 16.0862 4.35896 15.9594C4.16921 15.8326 4.02132 15.6524 3.93399 15.4416C3.84665 15.2307 3.8238 14.9987 3.86832 14.7749C3.91285 14.5511 4.02274 14.3455 4.18411 14.1841C4.34548 14.0227 4.55107 13.9128 4.7749 13.8683C4.99872 13.8238 5.23072 13.8467 5.44156 13.934C5.6524 14.0213 5.8326 14.1692 5.95939 14.359C6.08617 14.5487 6.15385 14.7718 6.15385 15C6.15385 15.306 6.03228 15.5995 5.81589 15.8159C5.5995 16.0323 5.30602 16.1538 5 16.1538ZM9.23077 16.1538C9.00256 16.1538 8.77948 16.0862 8.58973 15.9594C8.39998 15.8326 8.25209 15.6524 8.16475 15.4416C8.07742 15.2307 8.05457 14.9987 8.09909 14.7749C8.14362 14.5511 8.25351 14.3455 8.41488 14.1841C8.57625 14.0227 8.78184 13.9128 9.00566 13.8683C9.22949 13.8238 9.46149 13.8467 9.67233 13.934C9.88316 14.0213 10.0634 14.1692 10.1902 14.359C10.3169 14.5487 10.3846 14.7718 10.3846 15C10.3846 15.306 10.263 15.5995 10.0467 15.8159C9.83027 16.0323 9.53679 16.1538 9.23077 16.1538ZM9.23077 12.3077C9.00256 12.3077 8.77948 12.24 8.58973 12.1132C8.39998 11.9864 8.25209 11.8062 8.16475 11.5954C8.07742 11.3846 8.05457 11.1526 8.09909 10.9287C8.14362 10.7049 8.25351 10.4993 8.41488 10.338C8.57625 10.1766 8.78184 10.0667 9.00566 10.0222C9.22949 9.97765 9.46149 10.0005 9.67233 10.0878C9.88316 10.1752 10.0634 10.3231 10.1902 10.5128C10.3169 10.7026 10.3846 10.9256 10.3846 11.1538C10.3846 11.4599 10.263 11.7534 10.0467 11.9697C9.83027 12.1861 9.53679 12.3077 9.23077 12.3077ZM13.4615 16.1538C13.2333 16.1538 13.0102 16.0862 12.8205 15.9594C12.6307 15.8326 12.4829 15.6524 12.3955 15.4416C12.3082 15.2307 12.2853 14.9987 12.3299 14.7749C12.3744 14.5511 12.4843 14.3455 12.6456 14.1841C12.807 14.0227 13.0126 13.9128 13.2364 13.8683C13.4603 13.8238 13.6923 13.8467 13.9031 13.934C14.1139 14.0213 14.2941 14.1692 14.4209 14.359C14.5477 14.5487 14.6154 14.7718 14.6154 15C14.6154 15.306 14.4938 15.5995 14.2774 15.8159C14.061 16.0323 13.7676 16.1538 13.4615 16.1538ZM13.4615 12.3077C13.2333 12.3077 13.0102 12.24 12.8205 12.1132C12.6307 11.9864 12.4829 11.8062 12.3955 11.5954C12.3082 11.3846 12.2853 11.1526 12.3299 10.9287C12.3744 10.7049 12.4843 10.4993 12.6456 10.338C12.807 10.1766 13.0126 10.0667 13.2364 10.0222C13.4603 9.97765 13.6923 10.0005 13.9031 10.0878C14.1139 10.1752 14.2941 10.3231 14.4209 10.5128C14.5477 10.7026 14.6154 10.9256 14.6154 11.1538C14.6154 11.4599 14.4938 11.7534 14.2774 11.9697C14.061 12.1861 13.7676 12.3077 13.4615 12.3077ZM16.9231 6.15385H1.53846V3.07692H3.84615V3.84615C3.84615 4.05017 3.9272 4.24582 4.07146 4.39008C4.21572 4.53434 4.41137 4.61538 4.61538 4.61538C4.8194 4.61538 5.01505 4.53434 5.15931 4.39008C5.30357 4.24582 5.38462 4.05017 5.38462 3.84615V3.07692H13.0769V3.84615C13.0769 4.05017 13.158 4.24582 13.3022 4.39008C13.4465 4.53434 13.6421 4.61538 13.8462 4.61538C14.0502 4.61538 14.2458 4.53434 14.3901 4.39008C14.5343 4.24582 14.6154 4.05017 14.6154 3.84615V3.07692H16.9231V6.15385Z" fill="#238F4F"/>
</svg>
