<svg width="28" height="36" viewBox="0 0 28 36" fill="none" xmlns="http://www.w3.org/2000/svg">
<path d="M21.1875 6.46094C19.2575 4.23193 17.0852 2.22477 14.7109 0.476563C14.5008 0.32933 14.2504 0.250351 13.9937 0.250351C13.7371 0.250351 13.4867 0.32933 13.2766 0.476563C10.9066 2.2255 8.73862 4.23263 6.8125 6.46094C2.51719 11.3938 0.25 16.5938 0.25 21.5C0.25 25.1467 1.69866 28.6441 4.27728 31.2227C6.85591 33.8013 10.3533 35.25 14 35.25C17.6467 35.25 21.1441 33.8013 23.7227 31.2227C26.3013 28.6441 27.75 25.1467 27.75 21.5C27.75 16.5938 25.4828 11.3938 21.1875 6.46094ZM22.7266 22.9594C22.4024 24.7699 21.5314 26.4376 20.2307 27.738C18.93 29.0384 17.2621 29.9091 15.4516 30.2328C15.3849 30.2435 15.3175 30.2493 15.25 30.25C14.9364 30.2499 14.6344 30.132 14.4037 29.9196C14.173 29.7073 14.0306 29.416 14.0046 29.1035C13.9787 28.791 14.0711 28.4802 14.2636 28.2327C14.456 27.9851 14.7345 27.819 15.0437 27.7672C17.6328 27.3313 19.8297 25.1344 20.2687 22.5406C20.3243 22.2137 20.5074 21.9222 20.7779 21.7302C21.0483 21.5383 21.384 21.4617 21.7109 21.5172C22.0379 21.5727 22.3294 21.7559 22.5213 22.0263C22.7133 22.2968 22.7899 22.6324 22.7344 22.9594H22.7266Z" fill="#1763A6"/>
</svg>
