<svg viewBox="-4 0 64 64" xmlns="http://www.w3.org/2000/svg" fill="#000000"><g id="SVGRepo_bgCarrier" stroke-width="0"></g><g id="SVGRepo_tracerCarrier" stroke-linecap="round" stroke-linejoin="round"></g><g id="SVGRepo_iconCarrier"><path d="M5.112.006c-2.802 0-5.073 2.273-5.073 5.074v53.841c0 2.803 2.271 5.074 5.073 5.074h45.774c2.801 0 5.074-2.271 5.074-5.074v-38.605l-18.902-20.31h-31.946z" fill-rule="evenodd" clip-rule="evenodd" fill="#1763A6"></path><path d="M19.429 53.938c-.216 0-.415-.09-.54-.27l-3.728-4.97-3.745 4.97c-.126.18-.324.27-.54.27-.396 0-.72-.306-.72-.72 0-.144.035-.306.144-.432l3.89-5.131-3.619-4.826c-.09-.126-.145-.27-.145-.414 0-.342.288-.72.721-.72.216 0 .432.108.576.288l3.438 4.628 3.438-4.646c.127-.18.324-.27.541-.27.378 0 .738.306.738.72 0 .144-.036.288-.127.414l-3.619 4.808 3.891 5.149c.09.126.125.27.125.414 0 .396-.324.738-.719.738zm9.989-.126h-5.455c-.595 0-1.081-.486-1.081-1.08v-10.317c0-.396.324-.72.774-.72.396 0 .721.324.721.72v10.065h5.041c.359 0 .648.288.648.648 0 .396-.289.684-.648.684zm6.982.216c-1.782 0-3.188-.594-4.213-1.495-.162-.144-.234-.342-.234-.54 0-.36.27-.756.702-.756.144 0 .306.036.433.144.828.738 1.98 1.314 3.367 1.314 2.143 0 2.826-1.152 2.826-2.071 0-3.097-7.111-1.386-7.111-5.672 0-1.98 1.764-3.331 4.123-3.331 1.548 0 2.881.468 3.853 1.278.162.144.253.342.253.54 0 .36-.307.72-.703.72-.145 0-.307-.054-.432-.162-.883-.72-1.98-1.044-3.079-1.044-1.44 0-2.467.774-2.467 1.909 0 2.701 7.112 1.152 7.112 5.636 0 1.748-1.188 3.53-4.43 3.53z" fill="#ffffff"></path><path d="M55.953 20.352v1h-12.801s-6.312-1.26-6.127-6.707c0 0 .207 5.707 6.002 5.707h12.926z" fill-rule="evenodd" clip-rule="evenodd" fill="#<svg viewBox=" -4="" 0="" 64="" 64"="" xmlns="http://www.w3.org/2000/svg"><g id="SVGRepo_bgCarrier" stroke-width="0"></g><g id="SVGRepo_tracerCarrier" stroke-linecap="round" stroke-linejoin="round"></g><g id="SVGRepo_iconCarrier"> <path d="M5.151-.036c-2.803 0-5.074 2.272-5.074 5.074v53.841c0 2.803 2.271 5.074 5.074 5.074h45.774c2.801 0 5.074-2.271 5.074-5.074v-38.605l-18.902-20.31h-31.946z" fill-rule="evenodd" clip-rule="evenodd" fill="#1763A6"></path> <g fill-rule="evenodd" clip-rule="evenodd"> <path d="M56.008 20.316v1h-12.799s-6.312-1.26-6.129-6.708c0 0 .208 5.708 6.004 5.708h12.924z" fill="#1763A6"></path> <path d="M37.106-.036v14.561c0 1.656 1.104 5.792 6.104 5.792h12.799l-18.903-20.353z" opacity=".5" fill="#ffffff"></path> </g> <path d="M18.763 43.045h-3.277v10.047c0 .414-.324.738-.756.738-.414 0-.738-.324-.738-.738v-10.047h-3.259c-.36 0-.648-.288-.648-.684 0-.36.288-.648.648-.648h8.03c.36 0 .648.288.648.685 0 .359-.288.647-.648.647zm11.7 10.803c-.216 0-.415-.089-.541-.27l-3.727-4.97-3.745 4.97c-.126.181-.324.27-.54.27-.396 0-.72-.306-.72-.72 0-.144.036-.306.144-.432l3.889-5.131-3.619-4.826c-.09-.126-.144-.27-.144-.414 0-.343.288-.721.72-.721.216 0 .432.108.576.288l3.439 4.627 3.439-4.646c.126-.18.324-.27.541-.27.378 0 .738.306.738.721 0 .144-.036.288-.126.414l-3.619 4.808 3.89 5.149c.09.126.126.27.126.415 0 .396-.325.738-.721.738zm11.195-10.803h-3.277v10.047c0 .414-.323.738-.756.738-.414 0-.738-.324-.738-.738v-10.047h-3.259c-.36 0-.648-.288-.648-.684 0-.36.288-.648.648-.648h8.03c.36 0 .648.288.648.685.001.359-.287.647-.648.647z" fill="#ffffff"></path> </g>"&gt;</path><path d="M37.049 0v14.561c0 1.656 1.104 5.791 6.104 5.791h12.801l-18.905-20.352z" opacity=".5" fill-rule="evenodd" clip-rule="evenodd" fill="#ffffff"></path></g></svg>